<svg width="1640" height="490" viewBox="0 0 1640 490" fill="none" xmlns="http://www.w3.org/2000/svg">
<rect width="1640" height="490" rx="32" fill="white"/>
<path d="M112.506 345.215V132.995H151.02V221.813H194.25V132.995H233.026V345.215H194.25V249.323H151.02V345.215H112.506ZM254.756 345.215L297.2 132.995H338.596L381.04 345.215H345.146L336.762 296.221H299.82L291.174 345.215H254.756ZM303.75 271.593H332.57L318.16 182.513L303.75 271.593ZM402.382 345.215V132.995H429.368L480.982 254.039V132.995H512.946V345.215H487.27L435.394 218.407V345.215H402.382ZM545.152 345.215V132.995H595.194C612.486 132.995 625.935 135.353 635.542 140.069C645.323 144.785 652.223 152.034 656.24 161.815C660.432 171.597 662.528 183.998 662.528 199.019V276.571C662.528 291.942 660.432 304.78 656.24 315.085C652.223 325.216 645.411 332.814 635.804 337.879C626.372 342.77 613.359 345.215 596.766 345.215H545.152ZM583.928 318.229H595.718C604.626 318.229 611.001 316.657 614.844 313.513C618.687 310.369 621.045 305.828 621.918 299.889C622.791 293.776 623.228 286.353 623.228 277.619V196.399C623.228 187.841 622.617 180.941 621.394 175.701C620.171 170.461 617.639 166.619 613.796 164.173C609.953 161.728 603.753 160.505 595.194 160.505H583.928V318.229ZM690.992 345.215V132.995H729.768V318.491H781.12V345.215H690.992ZM801.267 345.215V132.995H890.347V160.243H840.043V221.289H879.605V248.275H840.043V318.491H890.871V345.215H801.267ZM912.286 271.593V247.489H975.428V271.593H912.286Z" fill="#551FC6"/>
<path d="M1007.51 345.215V132.995H1045.77V345.215H1007.51ZM1099.84 345.215V161.553H1066.04V132.995H1171.89V161.553H1138.62V345.215H1099.84Z" fill="white"/>
<path d="M112.506 345.215H108.506V349.215H112.506V345.215ZM112.506 132.995V128.995H108.506V132.995H112.506ZM151.02 132.995H155.02V128.995H151.02V132.995ZM151.02 221.813H147.02V225.813H151.02V221.813ZM194.25 221.813V225.813H198.25V221.813H194.25ZM194.25 132.995V128.995H190.25V132.995H194.25ZM233.026 132.995H237.026V128.995H233.026V132.995ZM233.026 345.215V349.215H237.026V345.215H233.026ZM194.25 345.215H190.25V349.215H194.25V345.215ZM194.25 249.323H198.25V245.323H194.25V249.323ZM151.02 249.323V245.323H147.02V249.323H151.02ZM151.02 345.215V349.215H155.02V345.215H151.02ZM116.506 345.215V132.995H108.506V345.215H116.506ZM112.506 136.995H151.02V128.995H112.506V136.995ZM147.02 132.995V221.813H155.02V132.995H147.02ZM151.02 225.813H194.25V217.813H151.02V225.813ZM198.25 221.813V132.995H190.25V221.813H198.25ZM194.25 136.995H233.026V128.995H194.25V136.995ZM229.026 132.995V345.215H237.026V132.995H229.026ZM233.026 341.215H194.25V349.215H233.026V341.215ZM198.25 345.215V249.323H190.25V345.215H198.25ZM194.25 245.323H151.02V253.323H194.25V245.323ZM147.02 249.323V345.215H155.02V249.323H147.02ZM151.02 341.215H112.506V349.215H151.02V341.215ZM254.756 345.215L250.833 344.431L249.876 349.215H254.756V345.215ZM297.2 132.995V128.995H293.92L293.277 132.211L297.2 132.995ZM338.596 132.995L342.518 132.211L341.875 128.995H338.596V132.995ZM381.04 345.215V349.215H385.919L384.962 344.431L381.04 345.215ZM345.146 345.215L341.203 345.89L341.772 349.215H345.146V345.215ZM336.762 296.221L340.704 295.547L340.135 292.221H336.762V296.221ZM299.82 296.221V292.221H296.464L295.88 295.526L299.82 296.221ZM291.174 345.215V349.215H294.53L295.113 345.911L291.174 345.215ZM303.75 271.593L299.801 270.955L299.051 275.593H303.75V271.593ZM332.57 271.593V275.593H337.269L336.518 270.955L332.57 271.593ZM318.16 182.513L322.108 181.875L314.211 181.875L318.16 182.513ZM258.678 346L301.122 133.78L293.277 132.211L250.833 344.431L258.678 346ZM297.2 136.995H338.596V128.995H297.2V136.995ZM334.673 133.78L377.117 346L384.962 344.431L342.518 132.211L334.673 133.78ZM381.04 341.215H345.146V349.215H381.04V341.215ZM349.088 344.541L340.704 295.547L332.819 296.896L341.203 345.89L349.088 344.541ZM336.762 292.221H299.82V300.221H336.762V292.221ZM295.88 295.526L287.234 344.52L295.113 345.911L303.759 296.917L295.88 295.526ZM291.174 341.215H254.756V349.215H291.174V341.215ZM303.75 275.593H332.57V267.593H303.75V275.593ZM336.518 270.955L322.108 181.875L314.211 183.152L328.621 272.232L336.518 270.955ZM314.211 181.875L299.801 270.955L307.698 272.232L322.108 183.152L314.211 181.875ZM402.382 345.215H398.382V349.215H402.382V345.215ZM402.382 132.995V128.995H398.382V132.995H402.382ZM429.368 132.995L433.048 131.426L432.011 128.995H429.368V132.995ZM480.982 254.039L477.303 255.608L484.982 254.039H480.982ZM480.982 132.995V128.995H476.982V132.995H480.982ZM512.946 132.995H516.946V128.995H512.946V132.995ZM512.946 345.215V349.215H516.946V345.215H512.946ZM487.27 345.215L483.568 346.73L484.585 349.215H487.27V345.215ZM435.394 218.407L439.097 216.893L431.394 218.407H435.394ZM435.394 345.215V349.215H439.394V345.215H435.394ZM406.382 345.215V132.995H398.382V345.215H406.382ZM402.382 136.995H429.368V128.995H402.382V136.995ZM425.689 134.564L477.303 255.608L484.662 252.47L433.048 131.426L425.689 134.564ZM484.982 254.039V132.995H476.982V254.039H484.982ZM480.982 136.995H512.946V128.995H480.982V136.995ZM508.946 132.995V345.215H516.946V132.995H508.946ZM512.946 341.215H487.27V349.215H512.946V341.215ZM490.973 343.701L439.097 216.893L431.692 219.922L483.568 346.73L490.973 343.701ZM431.394 218.407V345.215H439.394V218.407H431.394ZM435.394 341.215H402.382V349.215H435.394V341.215ZM545.152 345.215H541.152V349.215H545.152V345.215ZM545.152 132.995V128.995H541.152V132.995H545.152ZM635.542 140.069L633.779 143.66L633.792 143.666L633.805 143.672L635.542 140.069ZM656.24 161.815L652.54 163.335L652.551 163.363L652.563 163.391L656.24 161.815ZM656.24 315.085L652.535 313.578L652.528 313.595L652.522 313.611L656.24 315.085ZM635.804 337.879L637.645 341.43L637.657 341.424L637.67 341.418L635.804 337.879ZM583.928 318.229H579.928V322.229H583.928V318.229ZM614.844 313.513L617.377 316.609L617.377 316.609L614.844 313.513ZM621.918 299.889L625.875 300.471L625.877 300.463L625.878 300.455L621.918 299.889ZM621.394 175.701L617.499 176.61L617.499 176.61L621.394 175.701ZM613.796 164.173L611.648 167.548L611.648 167.548L613.796 164.173ZM583.928 160.505V156.505H579.928V160.505H583.928ZM549.152 345.215V132.995H541.152V345.215H549.152ZM545.152 136.995H595.194V128.995H545.152V136.995ZM595.194 136.995C612.209 136.995 624.958 139.33 633.779 143.66L637.305 136.479C626.913 131.377 612.763 128.995 595.194 128.995V136.995ZM633.805 143.672C642.724 147.973 648.908 154.493 652.54 163.335L659.94 160.296C655.537 149.575 647.923 141.598 637.279 136.466L633.805 143.672ZM652.563 163.391C656.473 172.514 658.528 184.333 658.528 199.019H666.528C666.528 183.663 664.391 170.679 659.917 160.24L652.563 163.391ZM658.528 199.019V276.571H666.528V199.019H658.528ZM658.528 276.571C658.528 291.609 656.473 303.897 652.535 313.578L659.945 316.593C664.391 305.664 666.528 292.275 666.528 276.571H658.528ZM652.522 313.611C648.855 322.858 642.698 329.723 633.938 334.341L637.67 341.418C648.123 335.906 655.591 327.574 659.958 316.56L652.522 313.611ZM633.963 334.328C625.331 338.804 613.044 341.215 596.766 341.215V349.215C613.675 349.215 627.413 346.736 637.645 341.43L633.963 334.328ZM596.766 341.215H545.152V349.215H596.766V341.215ZM583.928 322.229H595.718V314.229H583.928V322.229ZM595.718 322.229C604.897 322.229 612.44 320.649 617.377 316.609L612.311 310.418C609.563 312.666 604.355 314.229 595.718 314.229V322.229ZM617.377 316.609C622.145 312.708 624.889 307.179 625.875 300.471L617.96 299.307C617.2 304.477 615.228 308.031 612.311 310.418L617.377 316.609ZM625.878 300.455C626.786 294.095 627.228 286.471 627.228 277.619H619.228C619.228 286.234 618.796 293.457 617.958 299.324L625.878 300.455ZM627.228 277.619V196.399H619.228V277.619H627.228ZM627.228 196.399C627.228 187.692 626.61 180.452 625.289 174.793L617.499 176.61C618.623 181.431 619.228 187.99 619.228 196.399H627.228ZM625.289 174.793C623.875 168.732 620.827 163.906 615.943 160.799L611.648 167.548C614.451 169.331 616.467 172.191 617.499 176.61L625.289 174.793ZM615.943 160.799C611.107 157.721 603.946 156.505 595.194 156.505V164.505C603.559 164.505 608.799 165.735 611.648 167.548L615.943 160.799ZM595.194 156.505H583.928V164.505H595.194V156.505ZM579.928 160.505V318.229H587.928V160.505H579.928ZM690.992 345.215H686.992V349.215H690.992V345.215ZM690.992 132.995V128.995H686.992V132.995H690.992ZM729.768 132.995H733.768V128.995H729.768V132.995ZM729.768 318.491H725.768V322.491H729.768V318.491ZM781.12 318.491H785.12V314.491H781.12V318.491ZM781.12 345.215V349.215H785.12V345.215H781.12ZM694.992 345.215V132.995H686.992V345.215H694.992ZM690.992 136.995H729.768V128.995H690.992V136.995ZM725.768 132.995V318.491H733.768V132.995H725.768ZM729.768 322.491H781.12V314.491H729.768V322.491ZM777.12 318.491V345.215H785.12V318.491H777.12ZM781.12 341.215H690.992V349.215H781.12V341.215ZM801.267 345.215H797.267V349.215H801.267V345.215ZM801.267 132.995V128.995H797.267V132.995H801.267ZM890.347 132.995H894.347V128.995H890.347V132.995ZM890.347 160.243V164.243H894.347V160.243H890.347ZM840.043 160.243V156.243H836.043V160.243H840.043ZM840.043 221.289H836.043V225.289H840.043V221.289ZM879.605 221.289H883.605V217.289H879.605V221.289ZM879.605 248.275V252.275H883.605V248.275H879.605ZM840.043 248.275V244.275H836.043V248.275H840.043ZM840.043 318.491H836.043V322.491H840.043V318.491ZM890.871 318.491H894.871V314.491H890.871V318.491ZM890.871 345.215V349.215H894.871V345.215H890.871ZM805.267 345.215V132.995H797.267V345.215H805.267ZM801.267 136.995H890.347V128.995H801.267V136.995ZM886.347 132.995V160.243H894.347V132.995H886.347ZM890.347 156.243H840.043V164.243H890.347V156.243ZM836.043 160.243V221.289H844.043V160.243H836.043ZM840.043 225.289H879.605V217.289H840.043V225.289ZM875.605 221.289V248.275H883.605V221.289H875.605ZM879.605 244.275H840.043V252.275H879.605V244.275ZM836.043 248.275V318.491H844.043V248.275H836.043ZM840.043 322.491H890.871V314.491H840.043V322.491ZM886.871 318.491V345.215H894.871V318.491H886.871ZM890.871 341.215H801.267V349.215H890.871V341.215ZM912.286 271.593H908.286V275.593H912.286V271.593ZM912.286 247.489V243.489H908.286V247.489H912.286ZM975.428 247.489H979.428V243.489H975.428V247.489ZM975.428 271.593V275.593H979.428V271.593H975.428ZM916.286 271.593V247.489H908.286V271.593H916.286ZM912.286 251.489H975.428V243.489H912.286V251.489ZM971.428 247.489V271.593H979.428V247.489H971.428ZM975.428 267.593H912.286V275.593H975.428V267.593ZM1007.51 345.215H1003.51V349.215H1007.51V345.215ZM1007.51 132.995V128.995H1003.51V132.995H1007.51ZM1045.77 132.995H1049.77V128.995H1045.77V132.995ZM1045.77 345.215V349.215H1049.77V345.215H1045.77ZM1011.51 345.215V132.995H1003.51V345.215H1011.51ZM1007.51 136.995H1045.77V128.995H1007.51V136.995ZM1041.77 132.995V345.215H1049.77V132.995H1041.77ZM1045.77 341.215H1007.51V349.215H1045.77V341.215ZM1099.84 345.215H1095.84V349.215H1099.84V345.215ZM1099.84 161.553H1103.84V157.553H1099.84V161.553ZM1066.04 161.553H1062.04V165.553H1066.04V161.553ZM1066.04 132.995V128.995H1062.04V132.995H1066.04ZM1171.89 132.995H1175.89V128.995H1171.89V132.995ZM1171.89 161.553V165.553H1175.89V161.553H1171.89ZM1138.62 161.553V157.553H1134.62V161.553H1138.62ZM1138.62 345.215V349.215H1142.62V345.215H1138.62ZM1103.84 345.215V161.553H1095.84V345.215H1103.84ZM1099.84 157.553H1066.04V165.553H1099.84V157.553ZM1070.04 161.553V132.995H1062.04V161.553H1070.04ZM1066.04 136.995H1171.89V128.995H1066.04V136.995ZM1167.89 132.995V161.553H1175.89V132.995H1167.89ZM1171.89 157.553H1138.62V165.553H1171.89V157.553ZM1134.62 161.553V345.215H1142.62V161.553H1134.62ZM1138.62 341.215H1099.84V349.215H1138.62V341.215Z" fill="#551FC6"/>
<line x1="1296.5" y1="259.645" x2="1494.62" y2="286.994" stroke="#551FC6" stroke-width="21"/>
<line x1="1288.77" y1="287.323" x2="1473.06" y2="365.018" stroke="#551FC6" stroke-width="21"/>
<line x1="1275.44" y1="311.542" x2="1433.35" y2="434.288" stroke="#551FC6" stroke-width="21"/>
<line x1="1297.02" y1="231.693" x2="1495.46" y2="206.833" stroke="#551FC6" stroke-width="21"/>
<line x1="1289.85" y1="203.497" x2="1475.11" y2="128.122" stroke="#551FC6" stroke-width="21"/>
<line x1="1275.96" y1="177.854" x2="1435.39" y2="57.0998" stroke="#551FC6" stroke-width="21"/>
<path d="M1426.02 36.2172L1471.19 30.559L1453.5 72.5045L1426.02 36.2172Z" fill="#551FC6"/>
<path d="M1472.47 106.103L1517.56 112.327L1489.62 148.267L1472.47 106.103Z" fill="#551FC6"/>
<path d="M1498 183.592L1539.95 201.276L1503.66 228.76L1498 183.592Z" fill="#551FC6"/>
<path d="M1503.6 265.214L1539.54 293.152L1497.38 310.308L1503.6 265.214Z" fill="#551FC6"/>
<path d="M1487.74 346.201L1515.22 382.488L1470.05 388.146L1487.74 346.201Z" fill="#551FC6"/>
<path d="M1452.23 419.135L1469.39 461.299L1424.29 455.074L1452.23 419.135Z" fill="#551FC6"/>
</svg>
